<?xml version="1.0" standalone="no"?>
<!DOCTYPE svg PUBLIC "-//W3C//DTD SVG 1.1//EN" "http://www.w3.org/Graphics/SVG/1.1/DTD/svg11.dtd"><svg width="1024" height="1024" xmlns="http://www.w3.org/2000/svg" p-id="19177" version="1.1" class="icon" t="1701329549244">

 <g>
  <title>Layer 1</title>
  <path id="svg_1" p-id="19178" fill="#cccccc" d="m637.32226,826.57047l-205.62007,0c-15.47956,0 -28.03962,12.54982 -28.03962,28.03961s12.55904,28.03961 28.03962,28.03961l205.62007,0c15.47956,0 28.03962,-12.54983 28.03962,-28.03961s-12.55904,-28.03961 -28.03962,-28.03961z"/>
  <path id="svg_2" p-id="19179" fill="#cccccc" d="m581.24406,920.03414l-93.46367,0c-15.47955,0 -28.03961,12.54982 -28.03961,28.03961s12.55903,28.03961 28.03961,28.03961l93.46367,0c15.47955,0 28.03961,-12.54982 28.03961,-28.03961s-12.55903,-28.03961 -28.03961,-28.03961z"/>
  <path id="svg_3" p-id="19180" fill="#cccccc" d="m521.93016,199.04533c-149.04966,0 -270.29712,119.11182 -270.29712,265.51419c0,95.38954 50.8225,181.62969 133.79831,229.21445l15.23191,83.88041c2.4457,13.54448 14.2567,23.03769 27.54638,23.03769c1.66083,0 3.35849,-0.15554 5.03876,-0.45639c15.24215,-2.77418 25.35548,-17.3696 22.5813,-32.60254l-17.63361,-97.10561c-1.40807,-7.78122 -5.95769,-14.18405 -12.06785,-18.25476l0.12894,-0.26504c-73.12751,-35.76148 -118.54491,-107.5853 -118.54491,-187.44923c0,-115.47908 96.09254,-209.43599 214.21789,-209.43599s214.2179,93.95691 214.2179,209.43599c0,70.69306 -36.06336,135.94725 -96.45991,174.90452c-8.58964,3.38817 -15.38644,10.90026 -17.30309,20.63906l-21.10262,107.11867c-2.99419,15.19712 6.90016,29.93785 22.08807,32.93102c1.82557,0.36532 3.65115,0.53826 5.45831,0.53826c13.12493,0 24.84485,-9.26399 27.47373,-22.62632l18.67124,-94.77351c73.50613,-49.67537 117.25349,-130.82663 117.25349,-218.7317c0.00001,-146.40237 -121.24745,-265.51317 -270.29712,-265.51317z"/>
  <path id="svg_4" p-id="19181" fill="#cccccc" d="m493.92739,304.69351c-1.58817,-10.1952 -11.13562,-17.20484 -21.35845,-15.57983c-90.8174,14.18404 -127.16217,98.40214 -133.697,140.94405c-1.56975,10.18599 5.40306,19.68739 15.58905,21.27556c0.96702,0.15554 1.95349,0.2282 2.90209,0.2282c9.0358,0 16.97665,-6.58088 18.45533,-15.77222c0.62115,-3.92438 16.30127,-96.27469 102.51789,-109.74652c10.20645,-1.58817 17.17926,-11.15404 15.59109,-21.34924z"/>
  <path id="svg_5" p-id="19182" fill="#cccccc" d="m453.58457,608.66969c10.33232,0 18.69273,-8.36962 18.69273,-18.69273l0,-98.43797l42.95328,34.59287c6.718,5.42147 16.31968,5.53097 23.183,0.20978l46.02013,-35.70623l0,99.34155c0,10.32311 8.36041,18.69273 18.69273,18.69273c10.33232,0 18.69273,-8.36962 18.69273,-18.69273l0,-137.50268c0,-7.13756 -4.07071,-13.64579 -10.47865,-16.78529c-6.3711,-3.14872 -14.05613,-2.36384 -19.67818,2.01693l-64.49387,50.03558l-61.865,-49.8258c-5.58623,-4.5179 -13.28968,-5.41227 -19.78767,-2.30039c-6.49902,3.10369 -10.62397,9.65694 -10.62397,16.85794l0,137.50268c0,10.32414 8.36144,18.69376 18.69274,18.69376z"/>
 </g>
</svg>